# xmcd
#
# Track frame offsets: 
#        150
#        105382
#        166785
#
# Disc length: 2590 seconds
#
# Revision: 1
# Processed by: cddbd v1.5.2PL0 Copyright (c) Steve Scherf et al.
# Submitted via: ExactAudioCopy v0.99pb5
#
DISCID=150a1c03
DTITLE=任劍輝、白雪仙 - 帝女花
DYEAR=1960
DGENRE=粵曲
TTITLE0=庵遇
TTITLE1=相認
TTITLE2=香夭
EXTD=
EXTT0=
EXTT1=
EXTT2=
PLAYORDER=
